<?xml version="1.0" ?><svg viewBox="0 0 24 24" xmlns="http://www.w3.org/2000/svg"><g id="Line"><path d="M22.71,4.29l-3-3A1,1,0,0,0,19,1H10A5,5,0,0,0,5,6V18a5,5,0,0,0,5,5h8a5,5,0,0,0,5-5V5A1,1,0,0,0,22.71,4.29ZM18,21H10a3,3,0,0,1-3-3V6a3,3,0,0,1,3-3h8V5a1,1,0,0,0,1,1h2V18A3,3,0,0,1,18,21Z"/><path d="M14,11.5a1,1,0,0,0-1,1v3a1,1,0,0,0,2,0v-3A1,1,0,0,0,14,11.5Z"/><path d="M10,10.5a1,1,0,0,0-1,1v4a1,1,0,0,0,2,0v-4A1,1,0,0,0,10,10.5Z"/><path d="M18,8.5a1,1,0,0,0-1,1v6a1,1,0,0,0,2,0v-6A1,1,0,0,0,18,8.5Z"/></g></svg>